<svg width="78" height="45" viewBox="0 0 78 45" fill="none" xmlns="http://www.w3.org/2000/svg">
<path d="M70.4491 11.1444C70.4491 10.8275 70.5545 10.5634 70.7652 10.3521C70.976 10.1408 71.2395 10.0352 71.5557 10.0352H76.1928C76.4738 10.0352 76.7197 10.1408 76.9305 10.3521C77.1764 10.5634 77.2994 10.8275 77.2994 11.1444V34.7007C77.2994 36.1444 77.0183 37.4824 76.4562 38.7148C75.9293 39.9824 75.2091 41.0739 74.2958 41.9894C73.3824 42.9049 72.2934 43.6268 71.0287 44.1549C69.7641 44.7183 68.4291 45 67.0239 45C66.8132 45 66.6024 45 66.3916 45C66.216 45 66.0227 44.9824 65.812 44.9472C65.1796 44.8768 64.8635 44.507 64.8635 43.838V39.4542C64.8635 39.1725 64.9513 38.9261 65.1269 38.7148C65.3026 38.5035 65.5309 38.3803 65.812 38.3451C67.1469 38.0986 68.2535 37.4472 69.1317 36.3908C70.01 35.3697 70.4491 34.1725 70.4491 32.7993V11.1444ZM70.4491 3.48592C70.4491 2.53521 70.7828 1.72535 71.4503 1.05634C72.1177 0.352113 72.9257 0 73.8742 0C74.7876 0 75.578 0.352113 76.2455 1.05634C76.9481 1.72535 77.2994 2.53521 77.2994 3.48592C77.2994 4.40141 76.9481 5.19366 76.2455 5.86268C75.578 6.53169 74.7876 6.8662 73.8742 6.8662C72.9257 6.8662 72.1177 6.53169 71.4503 5.86268C70.7828 5.19366 70.4491 4.40141 70.4491 3.48592Z" fill="white"/>
<path d="M56.9664 3.52986C56.9664 2.57916 57.2826 1.7693 57.9149 1.10029C58.5824 0.396058 59.3904 0.0439453 60.3389 0.0439453C61.2874 0.0439453 62.0954 0.396058 62.7628 1.10029C63.4303 1.7693 63.764 2.57916 63.764 3.52986C63.764 4.44535 63.4303 5.23761 62.7628 5.90662C62.0954 6.57564 61.2874 6.91014 60.3389 6.91014C59.3904 6.91014 58.5824 6.57564 57.9149 5.90662C57.2826 5.23761 56.9664 4.44535 56.9664 3.52986ZM63.764 33.8996C63.764 34.2165 63.6586 34.4806 63.4478 34.6918C63.2371 34.9031 62.9736 35.0087 62.6574 35.0087H58.073C57.7569 35.0087 57.4934 34.9031 57.2826 34.6918C57.0718 34.4806 56.9664 34.2165 56.9664 33.8996V11.1883C56.9664 10.8714 57.0718 10.6073 57.2826 10.3961C57.4934 10.1848 57.7569 10.0792 58.073 10.0792H62.6574C62.9736 10.0792 63.2371 10.1848 63.4478 10.3961C63.6586 10.6073 63.764 10.8714 63.764 11.1883V33.8996Z" fill="white"/>
<path d="M17.9175 22.5439C17.9175 23.3186 18.058 24.058 18.339 24.7623C18.6552 25.4313 19.0592 26.0123 19.551 26.5052C20.078 26.9982 20.6752 27.4031 21.3426 27.72C22.0101 28.0017 22.7302 28.1425 23.5031 28.1425C24.2759 28.1425 24.9961 28.0017 25.6636 27.72C26.3662 27.4031 26.9634 26.9982 27.4552 26.5052C27.9821 26.0123 28.3861 25.4313 28.6671 24.7623C28.9833 24.058 29.1414 23.3186 29.1414 22.5439C29.1414 21.7693 28.9833 21.0475 28.6671 20.3785C28.3861 19.6742 27.9821 19.0756 27.4552 18.5827C26.9634 18.0897 26.3662 17.7024 25.6636 17.4207C24.9961 17.1038 24.2759 16.9454 23.5031 16.9454C22.7302 16.9454 22.0101 17.1038 21.3426 17.4207C20.6752 17.7024 20.078 18.0897 19.551 18.5827C19.0592 19.0756 18.6552 19.6742 18.339 20.3785C18.058 21.0475 17.9175 21.7693 17.9175 22.5439ZM16.8109 0.0439453C17.1271 0.0439453 17.3905 0.167185 17.6013 0.413665C17.8121 0.624932 17.9175 0.871411 17.9175 1.1531V10.5017C17.9175 10.713 17.9702 10.889 18.0756 11.0299C18.2161 11.1707 18.3742 11.2059 18.5498 11.1355C20.1658 10.4313 21.8344 10.0792 23.5558 10.0792C25.2771 10.0792 26.8931 10.4137 28.4037 11.0827C29.9142 11.7165 31.2316 12.5968 32.3558 13.7235C33.4799 14.8503 34.3582 16.1707 34.9905 17.6848C35.6579 19.1989 35.9917 20.801 35.9917 22.4911C35.9917 24.2165 35.6579 25.8362 34.9905 27.3503C34.3582 28.8644 33.4799 30.2024 32.3558 31.3644C31.2316 32.4911 29.9142 33.389 28.4037 34.058C26.8931 34.6918 25.2771 35.0087 23.5558 35.0087C21.8344 35.0087 20.2185 34.6918 18.7079 34.058C17.1973 33.389 15.8624 32.4911 14.7031 31.3644C13.579 30.2024 12.6832 28.8644 12.0157 27.3503C11.3834 25.8362 11.0672 24.2165 11.0672 22.4911V1.1531C11.0672 0.871411 11.1726 0.624932 11.3834 0.413665C11.6293 0.167185 11.8927 0.0439453 12.1738 0.0439453H16.8109Z" fill="white"/>
<path d="M47.0938 33.9139C47.0938 34.2308 46.9884 34.4949 46.7776 34.7062C46.5669 34.9174 46.3034 35.0231 45.9872 35.0231H41.3501C41.0339 35.0231 40.7705 34.9174 40.5597 34.7062C40.3489 34.4949 40.2435 34.2308 40.2435 33.9139V20.3928C40.2435 18.9844 40.507 17.6463 41.034 16.3787C41.596 15.1111 42.3337 14.0196 43.2471 13.1041C44.1605 12.1886 45.2319 11.4667 46.4615 10.9386C47.7261 10.3752 49.0786 10.0935 50.5189 10.0935C50.6946 10.0935 50.8878 10.0935 51.0986 10.0935C51.3094 10.0935 51.5201 10.1111 51.7309 10.1463C52.012 10.1815 52.2403 10.3048 52.416 10.516C52.5916 10.7273 52.6794 10.9738 52.6794 11.2555V15.6393C52.6794 15.921 52.5916 16.1674 52.416 16.3787C52.2403 16.59 52.012 16.7132 51.7309 16.7484C50.396 16.9949 49.2894 17.6463 48.4112 18.7027C47.5329 19.7238 47.0938 20.921 47.0938 22.2942V33.9139Z" fill="white"/>
<circle cx="2.97961" cy="11.1959" r="2.97961" fill="#FEC144"/>
<circle cx="2.97961" cy="23.9657" r="2.97961" fill="#FEC144"/>
</svg>
